<svg version="1.1" id="Layer_1" xmlns="http://www.w3.org/2000/svg" xmlns:xlink="http://www.w3.org/1999/xlink" x="0px" y="0px"
	 width="100%" viewBox="0 0 432 416" enable-background="new 0 0 432 416" xml:space="preserve">
<path fill="#000000" opacity="1.000000" stroke="none" 
	d="
M299.000000,417.000000 
	C199.333344,417.000000 100.166687,417.000000 1.000027,417.000000 
	C1.000018,278.333374 1.000018,139.666718 1.000009,1.000064 
	C144.999954,1.000043 288.999908,1.000043 432.999908,1.000021 
	C432.999939,139.666611 432.999939,278.333221 432.999969,416.999908 
	C388.500000,417.000000 344.000000,417.000000 299.000000,417.000000 
M272.196777,334.639557 
	C335.557709,313.270935 361.896576,242.975998 327.663757,186.605423 
	C309.726776,157.068970 272.684204,139.954330 238.847198,146.393875 
	C219.688553,150.039963 201.556992,157.501144 183.050949,163.525711 
	C181.656815,163.979568 180.391235,164.903061 179.146957,165.730164 
	C171.645691,170.716690 168.608261,179.767822 171.625244,188.021286 
	C174.909286,197.005432 181.848587,201.132034 191.673508,199.770737 
	C193.963394,199.453461 196.222809,198.766953 198.434189,198.057053 
	C211.752762,193.781662 224.948471,189.086151 238.382675,185.216461 
	C262.811798,178.179642 287.989563,189.800308 299.174896,212.562439 
	C314.271637,243.284286 301.887573,285.143341 263.646851,297.362152 
	C240.334610,304.810974 216.827576,311.695770 193.726471,319.747589 
	C168.263916,328.622528 138.867142,314.364838 135.086792,284.965240 
	C134.773315,282.527191 133.911331,280.569366 131.637741,279.250427 
	C121.597435,273.425934 112.996429,265.891083 105.369736,257.160675 
	C102.368492,253.725113 101.102180,254.055374 99.822166,258.516602 
	C95.813431,272.488464 96.457024,286.370453 100.265396,300.353271 
	C112.349846,344.722473 156.063370,369.875153 201.359985,356.771790 
	C224.864960,349.972260 248.081253,342.174835 272.196777,334.639557 
M340.607941,132.782410 
	C339.748383,126.472961 337.672119,120.497879 335.591949,114.523643 
	C323.100952,78.650208 284.297577,56.448608 247.059586,64.167778 
	C232.200684,67.247925 217.999481,72.707909 203.584991,77.358414 
	C187.746109,82.468460 171.554794,86.535118 156.186905,93.050774 
	C100.045296,116.853615 78.435471,185.119263 110.769768,236.740082 
	C129.556244,266.732208 163.998764,281.546509 195.406631,277.019897 
	C216.044724,274.045471 235.396133,265.671783 255.059219,258.943909 
	C265.246918,255.458115 270.189941,243.269806 266.602631,233.907440 
	C262.659149,223.615509 253.705490,219.943192 241.977859,223.789963 
	C229.319321,227.942123 216.592575,231.896698 204.007217,236.259521 
	C170.710754,247.802032 134.637344,227.157303 132.817062,185.614594 
	C131.623169,158.367447 148.025833,135.010986 174.337097,126.060127 
	C199.085892,117.640816 224.045822,109.837341 248.965515,101.928856 
	C254.530701,100.162697 260.346069,99.400482 266.242737,100.179543 
	C285.922394,102.779602 298.648163,115.047058 302.923096,136.225250 
	C303.876129,140.946548 305.979523,143.944641 310.013947,146.286057 
	C318.452301,151.183304 325.503998,157.785233 331.941223,165.069580 
	C333.117310,166.400436 334.046570,168.484848 336.187683,168.068008 
	C338.534027,167.611237 338.917389,165.207321 339.314850,163.353943 
	C341.418488,153.543884 342.717377,143.667404 340.607941,132.782410 
z"/>
</svg>