<svg width="32" height="32" viewBox="0 0 32 32" fill="none" xmlns="http://www.w3.org/2000/svg">
  <!-- Dark grey background -->
  <rect width="32" height="32" rx="6" fill="#2C2C2C"/>
  
  <!-- Mint green "S" - bold, rounded, continuous band -->
  <path d="M10 9C7.5 9 6 10.5 6 13C6 14.5 7 15.5 8.5 16C9.5 16.5 10 17 10 18C10 19 9 20 7.5 20C6 20 5 19 5 18C5 17 4 16.5 3 16.5C2 16.5 1 17 1 18C1 21 3.5 23 7 23C10.5 23 13 21 13 18C13 16.5 12 15.5 10.5 15C9.5 14.5 9 14 9 13C9 12 10 11 11.5 11C13 11 14 12 14 13C14 14 15 14.5 16 14.5C17 14.5 18 14 18 13C18 10 15.5 8 12.5 8C9.5 8 7 10 7 12.5C7 14 8 15 9.5 15.5C10.5 16 11 16.5 11 17.5C11 18.5 10 19.5 8.5 19.5C7 19.5 6 18.5 6 17.5C6 16 4.5 15 3 15C1.5 15 0 16 0 17.5C0 20.5 2.5 23 6 23C9.5 23 12 21 12 18.5C12 17 11 16 9.5 15.5C8.5 15 8 14.5 8 13.5C8 12.5 9 11.5 10.5 11.5C12 11.5 13 12.5 13 13.5C13 15 14.5 16 16 16C17.5 16 19 15 19 13.5C19 10.5 16.5 8.5 13 8.5C9.5 8.5 7 10.5 7 13H10Z" fill="#7DD3C0" fill-rule="evenodd"/>
  
  <!-- Small star in bottom right -->
  <path d="M26 26L25.5 24.5L24 24L25.5 23.5L26 22L26.5 23.5L28 24L26.5 24.5L26 26Z" fill="#9CA3AF" opacity="0.6"/>
</svg>
